<?xml version="1.0" encoding="utf-8" ?>
<svg xmlns="http://www.w3.org/2000/svg" xmlns:ev="http://www.w3.org/2001/xml-events" xmlns:s="https://github.com/nturley/netlistsvg" xmlns:xlink="http://www.w3.org/1999/xlink" baseProfile="full" height="100%" version="1.1" viewBox="9.599999999999998 -38.400000000000006 236.8 268.8" width="100%">
  <title>ohmic_contact_iv.svg</title>
  <defs/>
  <line stroke="black" stroke-linecap="round" stroke-width="2.0" x1="64" x2="192" y1="16" y2="16"/>
  <g s:height="96" s:type="voltage" s:width="40" transform="translate(64,16)">
    <line stroke="black" stroke-linecap="round" stroke-width="2.0" x1="0" x2="0" y1="0" y2="16"/>
    <line stroke="black" stroke-linecap="round" stroke-width="2.0" x1="0" x2="0" y1="80" y2="96"/>
    <line stroke="black" stroke-linecap="round" stroke-width="2.0" x1="0" x2="0" y1="30" y2="46"/>
    <line stroke="black" stroke-linecap="round" stroke-width="2.0" x1="-8" x2="8" y1="38" y2="38"/>
    <line stroke="black" stroke-linecap="round" stroke-width="2.0" x1="-8" x2="8" y1="62" y2="62"/>
    <ellipse cx="0.0" cy="48.0" fill="none" rx="20.0" ry="32.0" stroke="black" stroke-width="2.0"/>
    <g class="text-group">
      <text fill="black" font-family="Arial" font-size="24.0px" text-anchor="start" x="24" y="32.4">V1</text>
    </g>
    <g class="text-group">
      <text fill="black" font-family="Arial" font-size="24.0px" text-anchor="start" x="24" y="80.4">0</text>
    </g>
  </g>
  <g s:height="96" s:type="res" s:width="32" transform="translate(192,16)">
    <line stroke="black" stroke-linecap="round" stroke-width="2.0" x1="0" x2="0" y1="0" y2="16"/>
    <line stroke="black" stroke-linecap="round" stroke-width="2.0" x1="0" x2="0" y1="80" y2="96"/>
    <rect fill="none" height="64" stroke="black" stroke-width="2.0" width="32" x="-16" y="16"/>
    <g class="text-group">
      <text fill="black" font-family="Arial" font-size="24.0px" text-anchor="start" x="24" y="32.4">Rc</text>
    </g>
    <g class="text-group">
      <text fill="black" font-family="Arial" font-size="24.0px" text-anchor="start" x="24" y="80.4">1</text>
    </g>
  </g>
  <g s:height="96" s:type="res" s:width="32" transform="translate(192,112)">
    <line stroke="black" stroke-linecap="round" stroke-width="2.0" x1="0" x2="0" y1="0" y2="16"/>
    <line stroke="black" stroke-linecap="round" stroke-width="2.0" x1="0" x2="0" y1="80" y2="96"/>
    <rect fill="none" height="64" stroke="black" stroke-width="2.0" width="32" x="-16" y="16"/>
    <g class="text-group">
      <text fill="black" font-family="Arial" font-size="24.0px" text-anchor="start" x="24" y="32.4">Rb</text>
    </g>
    <g class="text-group">
      <text fill="black" font-family="Arial" font-size="24.0px" text-anchor="start" x="24" y="80.4">100</text>
    </g>
  </g>
  <g class="text-group">
    <text fill="black" font-family="Arial" font-size="24.0px" text-anchor="start" x="16" y="248.4">.dc V1 -1 1 0.01</text>
  </g>
  <g class="text-group">
    <text fill="black" font-family="Arial" font-size="24.0px" text-anchor="start" x="16" y="16.4">金属-半導体オーミック接合 確認回路：Rc=接触抵抗(模式値)，Rb=半導体バルク抵抗(模式値) (chapter01 fig, sec1.7)</text>
  </g>
  <g class="ground-flag">
    <g transform="translate(64,112) rotate(0)">
      <line stroke="black" stroke-linecap="round" stroke-width="2.0" x1="-16" x2="16" y1="0" y2="0"/>
      <line stroke="black" stroke-linecap="round" stroke-width="2.0" x1="-16" x2="0" y1="0" y2="16"/>
      <line stroke="black" stroke-linecap="round" stroke-width="2.0" x1="16" x2="0" y1="0" y2="16"/>
    </g>
  </g>
  <g class="ground-flag">
    <g transform="translate(192,208) rotate(0)">
      <line stroke="black" stroke-linecap="round" stroke-width="2.0" x1="-16" x2="16" y1="0" y2="0"/>
      <line stroke="black" stroke-linecap="round" stroke-width="2.0" x1="-16" x2="0" y1="0" y2="16"/>
      <line stroke="black" stroke-linecap="round" stroke-width="2.0" x1="16" x2="0" y1="0" y2="16"/>
    </g>
  </g>
</svg>
