<?xml version="1.0" encoding="utf-8" ?>
<svg xmlns="http://www.w3.org/2000/svg" xmlns:ev="http://www.w3.org/2001/xml-events" xmlns:s="https://github.com/nturley/netlistsvg" xmlns:xlink="http://www.w3.org/1999/xlink" baseProfile="full" height="100%" version="1.1" viewBox="100.8 84.8 879.952000000001 420.5919999999999" width="100%">
  <title>schottky_iv.svg</title>
  <defs/>
  <line stroke="black" stroke-linecap="round" stroke-width="2.0" x1="160" x2="320" y1="144" y2="144"/>
  <line stroke="black" stroke-linecap="round" stroke-width="2.0" x1="160" x2="160" y1="240" y2="288"/>
  <line stroke="black" stroke-linecap="round" stroke-width="2.0" x1="320" x2="320" y1="336" y2="384"/>
  <g s:height="96" s:type="voltage" s:width="40" transform="translate(160,144)">
    <line stroke="black" stroke-linecap="round" stroke-width="2.0" x1="0" x2="0" y1="0" y2="16"/>
    <line stroke="black" stroke-linecap="round" stroke-width="2.0" x1="0" x2="0" y1="80" y2="96"/>
    <line stroke="black" stroke-linecap="round" stroke-width="2.0" x1="0" x2="0" y1="30" y2="46"/>
    <line stroke="black" stroke-linecap="round" stroke-width="2.0" x1="-8" x2="8" y1="38" y2="38"/>
    <line stroke="black" stroke-linecap="round" stroke-width="2.0" x1="-8" x2="8" y1="62" y2="62"/>
    <ellipse cx="0.0" cy="48.0" fill="none" rx="20.0" ry="32.0" stroke="black" stroke-width="2.0"/>
    <g class="text-group">
      <text fill="black" font-family="Arial" font-size="24.0px" text-anchor="start" x="24" y="32.4">V1</text>
    </g>
    <g class="text-group">
      <text fill="black" font-family="Arial" font-size="24.0px" text-anchor="start" x="24" y="80.4">0</text>
    </g>
  </g>
  <g s:height="96" s:type="res" s:width="32" transform="translate(320,144)">
    <line stroke="black" stroke-linecap="round" stroke-width="2.0" x1="0" x2="0" y1="0" y2="16"/>
    <line stroke="black" stroke-linecap="round" stroke-width="2.0" x1="0" x2="0" y1="80" y2="96"/>
    <rect fill="none" height="64" stroke="black" stroke-width="2.0" width="32" x="-16" y="16"/>
    <g class="text-group">
      <text fill="black" font-family="Arial" font-size="24.0px" text-anchor="start" x="24" y="32.4">R1</text>
    </g>
    <g class="text-group">
      <text fill="black" font-family="Arial" font-size="24.0px" text-anchor="start" x="24" y="80.4">1k</text>
    </g>
  </g>
  <g s:height="96" s:type="diode" s:width="32" transform="translate(320,240)">
    <line stroke="black" stroke-linecap="round" stroke-width="2.0" x1="0" x2="0" y1="0" y2="32"/>
    <line stroke="black" stroke-linecap="round" stroke-width="2.0" x1="0" x2="0" y1="64" y2="96"/>
    <line stroke="black" stroke-linecap="round" stroke-width="2.0" x1="-16" x2="16" y1="32" y2="32"/>
    <line stroke="black" stroke-linecap="round" stroke-width="2.0" x1="-16" x2="0" y1="32" y2="64"/>
    <line stroke="black" stroke-linecap="round" stroke-width="2.0" x1="16" x2="0" y1="32" y2="64"/>
    <line stroke="black" stroke-linecap="round" stroke-width="2.0" x1="-16" x2="16" y1="64" y2="64"/>
    <g class="text-group">
      <text fill="black" font-family="Arial" font-size="24.0px" text-anchor="start" x="24" y="32.4">D1</text>
    </g>
    <g class="text-group">
      <text fill="black" font-family="Arial" font-size="24.0px" text-anchor="start" x="24" y="88.4">DSCHOTTKY</text>
    </g>
  </g>
  <g class="text-group">
    <text fill="black" font-family="Arial" font-size="24.0px" text-anchor="start" x="160" y="56.4">ショットキー接合ダイオードI-V特性試験回路 (chapter01 fig, sec1.7)</text>
  </g>
  <g class="text-group">
    <text fill="black" font-family="Arial" font-size="24.0px" text-anchor="start" x="160" y="464.4">.model DSCHOTTKY D(Is=1e-9 N=1.05 Rs=0.05)</text>
  </g>
  <g class="text-group">
    <text fill="black" font-family="Arial" font-size="24.0px" text-anchor="start" x="160" y="488.4">.dc V1 -5 1 0.01</text>
  </g>
  <g class="ground-flag">
    <g transform="translate(160,288) rotate(0)">
      <line stroke="black" stroke-linecap="round" stroke-width="2.0" x1="-16" x2="16" y1="0" y2="0"/>
      <line stroke="black" stroke-linecap="round" stroke-width="2.0" x1="-16" x2="0" y1="0" y2="16"/>
      <line stroke="black" stroke-linecap="round" stroke-width="2.0" x1="16" x2="0" y1="0" y2="16"/>
    </g>
  </g>
  <g class="ground-flag">
    <g transform="translate(320,384) rotate(0)">
      <line stroke="black" stroke-linecap="round" stroke-width="2.0" x1="-16" x2="16" y1="0" y2="0"/>
      <line stroke="black" stroke-linecap="round" stroke-width="2.0" x1="-16" x2="0" y1="0" y2="16"/>
      <line stroke="black" stroke-linecap="round" stroke-width="2.0" x1="16" x2="0" y1="0" y2="16"/>
    </g>
  </g>
</svg>
