<?xml version="1.0" encoding="utf-8" ?>
<svg xmlns="http://www.w3.org/2000/svg" xmlns:ev="http://www.w3.org/2001/xml-events" xmlns:s="https://github.com/nturley/netlistsvg" xmlns:xlink="http://www.w3.org/1999/xlink" baseProfile="full" height="100%" version="1.1" viewBox="1.5999999999999979 -46.400000000000006 915.5040000000006 472.94399999999996" width="100%">
  <title>bjt_base_drive.svg</title>
  <defs/>
  <line stroke="black" stroke-linecap="round" stroke-width="2.0" x1="64" x2="192" y1="16" y2="16"/>
  <line stroke="black" stroke-linecap="round" stroke-width="2.0" x1="192" x2="288" y1="112" y2="112"/>
  <line stroke="black" stroke-linecap="round" stroke-width="2.0" x1="144" x2="256" y1="160" y2="160"/>
  <g s:height="96" s:type="voltage" s:width="40" transform="translate(64,16)">
    <line stroke="black" stroke-linecap="round" stroke-width="2.0" x1="0" x2="0" y1="0" y2="16"/>
    <line stroke="black" stroke-linecap="round" stroke-width="2.0" x1="0" x2="0" y1="80" y2="96"/>
    <line stroke="black" stroke-linecap="round" stroke-width="2.0" x1="0" x2="0" y1="30" y2="46"/>
    <line stroke="black" stroke-linecap="round" stroke-width="2.0" x1="-8" x2="8" y1="38" y2="38"/>
    <line stroke="black" stroke-linecap="round" stroke-width="2.0" x1="-8" x2="8" y1="62" y2="62"/>
    <ellipse cx="0.0" cy="48.0" fill="none" rx="20.0" ry="32.0" stroke="black" stroke-width="2.0"/>
    <g class="text-group">
      <text fill="black" font-family="Arial" font-size="24.0px" text-anchor="start" x="24" y="32.4">V1</text>
    </g>
    <g class="text-group">
      <text fill="black" font-family="Arial" font-size="24.0px" text-anchor="start" x="24" y="80.4">12</text>
    </g>
  </g>
  <g s:height="96" s:type="res" s:width="32" transform="translate(192,16)">
    <line stroke="black" stroke-linecap="round" stroke-width="2.0" x1="0" x2="0" y1="0" y2="16"/>
    <line stroke="black" stroke-linecap="round" stroke-width="2.0" x1="0" x2="0" y1="80" y2="96"/>
    <rect fill="none" height="64" stroke="black" stroke-width="2.0" width="32" x="-16" y="16"/>
    <g class="text-group">
      <text fill="black" font-family="Arial" font-size="24.0px" text-anchor="start" x="24" y="32.4">RC</text>
    </g>
    <g class="text-group">
      <text fill="black" font-family="Arial" font-size="24.0px" text-anchor="start" x="24" y="80.4">0.02</text>
    </g>
  </g>
  <g s:height="96" s:type="current" s:width="40" transform="translate(144,256) rotate(180)">
    <line stroke="black" stroke-linecap="round" stroke-width="2.0" x1="0" x2="0" y1="0" y2="16"/>
    <line stroke="black" stroke-linecap="round" stroke-width="2.0" x1="0" x2="0" y1="80" y2="96"/>
    <line stroke="black" stroke-linecap="round" stroke-width="2.0" x1="0" x2="0" y1="34" y2="62"/>
    <line stroke="black" stroke-linecap="round" stroke-width="2.0" x1="0" x2="-6" y1="62" y2="50"/>
    <line stroke="black" stroke-linecap="round" stroke-width="2.0" x1="0" x2="6" y1="62" y2="50"/>
    <ellipse cx="0.0" cy="48.0" fill="none" rx="20.0" ry="32.0" stroke="black" stroke-width="2.0"/>
    <g transform="rotate(180, 24, 24)">
      <g class="text-group">
        <text fill="black" font-family="Arial" font-size="24.0px" text-anchor="end" x="24" y="32.4">I1</text>
      </g>
    </g>
    <g transform="rotate(180, 24, 72)">
      <g class="text-group">
        <text fill="black" font-family="Arial" font-size="24.0px" text-anchor="end" x="24" y="80.4">2</text>
      </g>
    </g>
  </g>
  <g s:height="96" s:type="bjt_npn" s:width="32" transform="translate(256,112)">
    <line stroke="black" stroke-linecap="round" stroke-width="2.0" x1="32" x2="32" y1="0" y2="32"/>
    <line stroke="black" stroke-linecap="round" stroke-width="2.0" x1="32" x2="16" y1="32" y2="48"/>
    <line stroke="black" stroke-linecap="round" stroke-width="2.0" x1="16" x2="16" y1="24" y2="72"/>
    <line stroke="black" stroke-linecap="round" stroke-width="2.0" x1="0" x2="16" y1="48" y2="48"/>
    <line stroke="black" stroke-linecap="round" stroke-width="2.0" x1="16" x2="32" y1="48" y2="64"/>
    <line stroke="black" stroke-linecap="round" stroke-width="2.0" x1="32" x2="32" y1="64" y2="96"/>
    <line stroke="black" stroke-linecap="round" stroke-width="2.0" x1="26" x2="20" y1="58" y2="56"/>
    <line stroke="black" stroke-linecap="round" stroke-width="2.0" x1="26" x2="24" y1="58" y2="64"/>
    <g class="text-group">
      <text fill="black" font-family="Arial" font-size="24.0px" text-anchor="start" x="40" y="32.4">Q1</text>
    </g>
    <g class="text-group">
      <text fill="black" font-family="Arial" font-size="24.0px" text-anchor="start" x="40" y="80.4">QNPN</text>
    </g>
  </g>
  <g class="text-group">
    <text fill="black" font-family="Arial" font-size="24.0px" text-anchor="start" x="16" y="16.4">BJTベース駆動回路 (chapter02, sec2.4, 例題2.2)</text>
  </g>
  <g class="text-group">
    <text fill="black" font-family="Arial" font-size="24.0px" text-anchor="start" x="16" y="40.4">beta=50 NPN, VCC=12V, RC=0.02ohm, IB=2A(電流源固定注入), エミッタ接地</text>
  </g>
  <g class="text-group">
    <text fill="black" font-family="Arial" font-size="24.0px" text-anchor="start" x="16" y="64.4">期待値: iC = beta*iB = 50*2 = 100A, P_B = 0.7V*2A = 1.4W (教科書の値)</text>
  </g>
  <g class="text-group">
    <text fill="black" font-family="Arial" font-size="24.0px" text-anchor="start" x="16" y="288.4">.model QNPN NPN(BF=50)</text>
  </g>
  <g class="text-group">
    <text fill="black" font-family="Arial" font-size="24.0px" text-anchor="start" x="16" y="312.4">.control</text>
  </g>
  <g class="text-group">
    <text fill="black" font-family="Arial" font-size="24.0px" text-anchor="start" x="16" y="336.4">op</text>
  </g>
  <g class="text-group">
    <text fill="black" font-family="Arial" font-size="24.0px" text-anchor="start" x="16" y="360.4">print v(ncoll) v(nbase) @q1[ic] @q1[ib] @q1[ie] @q1[vbe]</text>
  </g>
  <g class="text-group">
    <text fill="black" font-family="Arial" font-size="24.0px" text-anchor="start" x="16" y="384.4">write chapter02/bjt_base_drive.raw</text>
  </g>
  <g class="text-group">
    <text fill="black" font-family="Arial" font-size="24.0px" text-anchor="start" x="16" y="408.4">.endc</text>
  </g>
  <g class="ground-flag">
    <g transform="translate(64,112) rotate(0)">
      <line stroke="black" stroke-linecap="round" stroke-width="2.0" x1="-16" x2="16" y1="0" y2="0"/>
      <line stroke="black" stroke-linecap="round" stroke-width="2.0" x1="-16" x2="0" y1="0" y2="16"/>
      <line stroke="black" stroke-linecap="round" stroke-width="2.0" x1="16" x2="0" y1="0" y2="16"/>
    </g>
  </g>
  <g class="ground-flag">
    <g transform="translate(144,256) rotate(0)">
      <line stroke="black" stroke-linecap="round" stroke-width="2.0" x1="-16" x2="16" y1="0" y2="0"/>
      <line stroke="black" stroke-linecap="round" stroke-width="2.0" x1="-16" x2="0" y1="0" y2="16"/>
      <line stroke="black" stroke-linecap="round" stroke-width="2.0" x1="16" x2="0" y1="0" y2="16"/>
    </g>
  </g>
  <g class="ground-flag">
    <g transform="translate(288,208) rotate(0)">
      <line stroke="black" stroke-linecap="round" stroke-width="2.0" x1="-16" x2="16" y1="0" y2="0"/>
      <line stroke="black" stroke-linecap="round" stroke-width="2.0" x1="-16" x2="0" y1="0" y2="16"/>
      <line stroke="black" stroke-linecap="round" stroke-width="2.0" x1="16" x2="0" y1="0" y2="16"/>
    </g>
  </g>
  <g class="text-group">
    <text fill="black" font-family="Arial" font-size="24.0px" text-anchor="start" x="288" y="120.4">ncoll</text>
  </g>
  <g class="net-label"/>
  <g class="text-group">
    <text fill="black" font-family="Arial" font-size="24.0px" text-anchor="start" x="256" y="168.4">nbase</text>
  </g>
  <g class="net-label"/>
</svg>
