<?xml version="1.0" encoding="utf-8" ?>
<svg xmlns="http://www.w3.org/2000/svg" xmlns:ev="http://www.w3.org/2001/xml-events" xmlns:s="https://github.com/nturley/netlistsvg" xmlns:xlink="http://www.w3.org/1999/xlink" baseProfile="full" height="100%" version="1.1" viewBox="-66.60000000000001 -114.60000000000001 1322.1160000000016 1285.6960000000001" width="100%">
  <title>phase_control_rl_load.svg</title>
  <defs/>
  <g s:height="96" s:type="voltage" s:width="40" transform="translate(64,16)">
    <line stroke="black" stroke-linecap="round" stroke-width="2.0" x1="0" x2="0" y1="0" y2="16"/>
    <line stroke="black" stroke-linecap="round" stroke-width="2.0" x1="0" x2="0" y1="80" y2="96"/>
    <line stroke="black" stroke-linecap="round" stroke-width="2.0" x1="0" x2="0" y1="30" y2="46"/>
    <line stroke="black" stroke-linecap="round" stroke-width="2.0" x1="-8" x2="8" y1="38" y2="38"/>
    <line stroke="black" stroke-linecap="round" stroke-width="2.0" x1="-8" x2="8" y1="62" y2="62"/>
    <ellipse cx="0.0" cy="48.0" fill="none" rx="20.0" ry="32.0" stroke="black" stroke-width="2.0"/>
    <g class="text-group">
      <text fill="black" font-family="Arial" font-size="24.0px" text-anchor="start" x="24" y="32.4">Vin</text>
    </g>
    <g class="text-group">
      <text fill="black" font-family="Arial" font-size="24.0px" text-anchor="start" x="24" y="80.4">SIN(0 141 50)</text>
    </g>
  </g>
  <g s:height="96" s:type="res" s:width="32" transform="translate(224,16)">
    <line stroke="black" stroke-linecap="round" stroke-width="2.0" x1="0" x2="0" y1="0" y2="16"/>
    <line stroke="black" stroke-linecap="round" stroke-width="2.0" x1="0" x2="0" y1="80" y2="96"/>
    <rect fill="none" height="64" stroke="black" stroke-width="2.0" width="32" x="-16" y="16"/>
    <g class="text-group">
      <text fill="black" font-family="Arial" font-size="24.0px" text-anchor="start" x="24" y="32.4">Rsrc</text>
    </g>
    <g class="text-group">
      <text fill="black" font-family="Arial" font-size="24.0px" text-anchor="start" x="24" y="80.4">0.5</text>
    </g>
  </g>
  <g s:height="96" s:type="res" s:width="32" transform="translate(384,16)">
    <line stroke="black" stroke-linecap="round" stroke-width="2.0" x1="0" x2="0" y1="0" y2="16"/>
    <line stroke="black" stroke-linecap="round" stroke-width="2.0" x1="0" x2="0" y1="80" y2="96"/>
    <rect fill="none" height="64" stroke="black" stroke-width="2.0" width="32" x="-16" y="16"/>
    <g class="text-group">
      <text fill="black" font-family="Arial" font-size="24.0px" text-anchor="start" x="24" y="32.4">Rload</text>
    </g>
    <g class="text-group">
      <text fill="black" font-family="Arial" font-size="24.0px" text-anchor="start" x="24" y="80.4">100</text>
    </g>
  </g>
  <g s:height="96" s:type="ind" s:width="10" transform="translate(544,16)">
    <line stroke="black" stroke-linecap="round" stroke-width="2.0" x1="0" x2="0" y1="0" y2="16"/>
    <line stroke="black" stroke-linecap="round" stroke-width="2.0" x1="0" x2="10" y1="16" y2="24"/>
    <line stroke="black" stroke-linecap="round" stroke-width="2.0" x1="10" x2="0" y1="24" y2="32"/>
    <line stroke="black" stroke-linecap="round" stroke-width="2.0" x1="0" x2="10" y1="32" y2="40"/>
    <line stroke="black" stroke-linecap="round" stroke-width="2.0" x1="10" x2="0" y1="40" y2="48"/>
    <line stroke="black" stroke-linecap="round" stroke-width="2.0" x1="0" x2="10" y1="48" y2="56"/>
    <line stroke="black" stroke-linecap="round" stroke-width="2.0" x1="10" x2="0" y1="56" y2="64"/>
    <line stroke="black" stroke-linecap="round" stroke-width="2.0" x1="0" x2="10" y1="64" y2="72"/>
    <line stroke="black" stroke-linecap="round" stroke-width="2.0" x1="10" x2="0" y1="72" y2="80"/>
    <line stroke="black" stroke-linecap="round" stroke-width="2.0" x1="0" x2="0" y1="80" y2="96"/>
    <g class="text-group">
      <text fill="black" font-family="Arial" font-size="24.0px" text-anchor="start" x="24" y="32.4">Lload</text>
    </g>
    <g class="text-group">
      <text fill="black" font-family="Arial" font-size="24.0px" text-anchor="start" x="24" y="96.4">300m</text>
    </g>
  </g>
  <g s:height="96" s:type="pnp" s:width="32" transform="translate(560,250)">
    <line stroke="black" stroke-linecap="round" stroke-width="2.0" x1="32" x2="32" y1="0" y2="32"/>
    <line stroke="black" stroke-linecap="round" stroke-width="2.0" x1="32" x2="16" y1="32" y2="48"/>
    <line stroke="black" stroke-linecap="round" stroke-width="2.0" x1="16" x2="16" y1="24" y2="72"/>
    <line stroke="black" stroke-linecap="round" stroke-width="2.0" x1="0" x2="16" y1="48" y2="48"/>
    <line stroke="black" stroke-linecap="round" stroke-width="2.0" x1="16" x2="32" y1="48" y2="64"/>
    <line stroke="black" stroke-linecap="round" stroke-width="2.0" x1="32" x2="32" y1="64" y2="96"/>
    <line stroke="black" stroke-linecap="round" stroke-width="2.0" x1="18" x2="24" y1="50" y2="52"/>
    <line stroke="black" stroke-linecap="round" stroke-width="2.0" x1="18" x2="20" y1="50" y2="56"/>
    <g class="text-group">
      <text fill="black" font-family="Arial" font-size="24.0px" text-anchor="start" x="40" y="32.4">Q2p</text>
    </g>
    <g class="text-group">
      <text fill="black" font-family="Arial" font-size="24.0px" text-anchor="start" x="40" y="80.4">QPNP2</text>
    </g>
  </g>
  <g s:height="96" s:type="npn" s:width="32" transform="translate(560,394)">
    <line stroke="black" stroke-linecap="round" stroke-width="2.0" x1="32" x2="32" y1="0" y2="32"/>
    <line stroke="black" stroke-linecap="round" stroke-width="2.0" x1="32" x2="16" y1="32" y2="48"/>
    <line stroke="black" stroke-linecap="round" stroke-width="2.0" x1="16" x2="16" y1="24" y2="72"/>
    <line stroke="black" stroke-linecap="round" stroke-width="2.0" x1="0" x2="16" y1="48" y2="48"/>
    <line stroke="black" stroke-linecap="round" stroke-width="2.0" x1="16" x2="32" y1="48" y2="64"/>
    <line stroke="black" stroke-linecap="round" stroke-width="2.0" x1="32" x2="32" y1="64" y2="96"/>
    <line stroke="black" stroke-linecap="round" stroke-width="2.0" x1="26" x2="20" y1="58" y2="56"/>
    <line stroke="black" stroke-linecap="round" stroke-width="2.0" x1="26" x2="24" y1="58" y2="64"/>
    <g class="text-group">
      <text fill="black" font-family="Arial" font-size="24.0px" text-anchor="start" x="40" y="32.4">Q1p</text>
    </g>
    <g class="text-group">
      <text fill="black" font-family="Arial" font-size="24.0px" text-anchor="start" x="40" y="80.4">QNPN2</text>
    </g>
  </g>
  <g s:height="96" s:type="res" s:width="32" transform="translate(760,442)">
    <line stroke="black" stroke-linecap="round" stroke-width="2.0" x1="0" x2="0" y1="0" y2="16"/>
    <line stroke="black" stroke-linecap="round" stroke-width="2.0" x1="0" x2="0" y1="80" y2="96"/>
    <rect fill="none" height="64" stroke="black" stroke-width="2.0" width="32" x="-16" y="16"/>
    <g class="text-group">
      <text fill="black" font-family="Arial" font-size="24.0px" text-anchor="start" x="24" y="32.4">Rshuntp</text>
    </g>
    <g class="text-group">
      <text fill="black" font-family="Arial" font-size="24.0px" text-anchor="start" x="24" y="80.4">1k</text>
    </g>
  </g>
  <g s:height="96" s:type="current" s:width="40" transform="translate(176,538) rotate(180)">
    <line stroke="black" stroke-linecap="round" stroke-width="2.0" x1="0" x2="0" y1="0" y2="16"/>
    <line stroke="black" stroke-linecap="round" stroke-width="2.0" x1="0" x2="0" y1="80" y2="96"/>
    <line stroke="black" stroke-linecap="round" stroke-width="2.0" x1="0" x2="0" y1="34" y2="62"/>
    <line stroke="black" stroke-linecap="round" stroke-width="2.0" x1="0" x2="-6" y1="62" y2="50"/>
    <line stroke="black" stroke-linecap="round" stroke-width="2.0" x1="0" x2="6" y1="62" y2="50"/>
    <ellipse cx="0.0" cy="48.0" fill="none" rx="20.0" ry="32.0" stroke="black" stroke-width="2.0"/>
    <g transform="rotate(180, 24, 24)">
      <g class="text-group">
        <text fill="black" font-family="Arial" font-size="24.0px" text-anchor="end" x="24" y="32.4">Igatep</text>
      </g>
    </g>
    <g transform="rotate(180, 24, 72)">
      <g class="text-group">
        <text fill="black" font-family="Arial" font-size="24.0px" text-anchor="end" x="24" y="80.4">PULSE(0 10m 3.3333m 1u 1u 1m 20m)</text>
      </g>
    </g>
  </g>
  <g s:height="96" s:type="pnp" s:width="32" transform="translate(560,650)">
    <line stroke="black" stroke-linecap="round" stroke-width="2.0" x1="32" x2="32" y1="0" y2="32"/>
    <line stroke="black" stroke-linecap="round" stroke-width="2.0" x1="32" x2="16" y1="32" y2="48"/>
    <line stroke="black" stroke-linecap="round" stroke-width="2.0" x1="16" x2="16" y1="24" y2="72"/>
    <line stroke="black" stroke-linecap="round" stroke-width="2.0" x1="0" x2="16" y1="48" y2="48"/>
    <line stroke="black" stroke-linecap="round" stroke-width="2.0" x1="16" x2="32" y1="48" y2="64"/>
    <line stroke="black" stroke-linecap="round" stroke-width="2.0" x1="32" x2="32" y1="64" y2="96"/>
    <line stroke="black" stroke-linecap="round" stroke-width="2.0" x1="18" x2="24" y1="50" y2="52"/>
    <line stroke="black" stroke-linecap="round" stroke-width="2.0" x1="18" x2="20" y1="50" y2="56"/>
    <g class="text-group">
      <text fill="black" font-family="Arial" font-size="24.0px" text-anchor="start" x="40" y="32.4">Q2n</text>
    </g>
    <g class="text-group">
      <text fill="black" font-family="Arial" font-size="24.0px" text-anchor="start" x="40" y="80.4">QPNP2</text>
    </g>
  </g>
  <g s:height="96" s:type="npn" s:width="32" transform="translate(560,794)">
    <line stroke="black" stroke-linecap="round" stroke-width="2.0" x1="32" x2="32" y1="0" y2="32"/>
    <line stroke="black" stroke-linecap="round" stroke-width="2.0" x1="32" x2="16" y1="32" y2="48"/>
    <line stroke="black" stroke-linecap="round" stroke-width="2.0" x1="16" x2="16" y1="24" y2="72"/>
    <line stroke="black" stroke-linecap="round" stroke-width="2.0" x1="0" x2="16" y1="48" y2="48"/>
    <line stroke="black" stroke-linecap="round" stroke-width="2.0" x1="16" x2="32" y1="48" y2="64"/>
    <line stroke="black" stroke-linecap="round" stroke-width="2.0" x1="32" x2="32" y1="64" y2="96"/>
    <line stroke="black" stroke-linecap="round" stroke-width="2.0" x1="26" x2="20" y1="58" y2="56"/>
    <line stroke="black" stroke-linecap="round" stroke-width="2.0" x1="26" x2="24" y1="58" y2="64"/>
    <g class="text-group">
      <text fill="black" font-family="Arial" font-size="24.0px" text-anchor="start" x="40" y="32.4">Q1n</text>
    </g>
    <g class="text-group">
      <text fill="black" font-family="Arial" font-size="24.0px" text-anchor="start" x="40" y="80.4">QNPN2</text>
    </g>
  </g>
  <g s:height="96" s:type="res" s:width="32" transform="translate(760,842)">
    <line stroke="black" stroke-linecap="round" stroke-width="2.0" x1="0" x2="0" y1="0" y2="16"/>
    <line stroke="black" stroke-linecap="round" stroke-width="2.0" x1="0" x2="0" y1="80" y2="96"/>
    <rect fill="none" height="64" stroke="black" stroke-width="2.0" width="32" x="-16" y="16"/>
    <g class="text-group">
      <text fill="black" font-family="Arial" font-size="24.0px" text-anchor="start" x="24" y="32.4">Rshuntn</text>
    </g>
    <g class="text-group">
      <text fill="black" font-family="Arial" font-size="24.0px" text-anchor="start" x="24" y="80.4">1k</text>
    </g>
  </g>
  <g s:height="96" s:type="current" s:width="40" transform="translate(176,938) rotate(180)">
    <line stroke="black" stroke-linecap="round" stroke-width="2.0" x1="0" x2="0" y1="0" y2="16"/>
    <line stroke="black" stroke-linecap="round" stroke-width="2.0" x1="0" x2="0" y1="80" y2="96"/>
    <line stroke="black" stroke-linecap="round" stroke-width="2.0" x1="0" x2="0" y1="34" y2="62"/>
    <line stroke="black" stroke-linecap="round" stroke-width="2.0" x1="0" x2="-6" y1="62" y2="50"/>
    <line stroke="black" stroke-linecap="round" stroke-width="2.0" x1="0" x2="6" y1="62" y2="50"/>
    <ellipse cx="0.0" cy="48.0" fill="none" rx="20.0" ry="32.0" stroke="black" stroke-width="2.0"/>
    <g transform="rotate(180, 24, 24)">
      <g class="text-group">
        <text fill="black" font-family="Arial" font-size="24.0px" text-anchor="end" x="24" y="32.4">Igaten</text>
      </g>
    </g>
    <g transform="rotate(180, 24, 72)">
      <g class="text-group">
        <text fill="black" font-family="Arial" font-size="24.0px" text-anchor="end" x="24" y="80.4">PULSE(0 10m 13.3333m 1u 1u 1m 20m)</text>
      </g>
    </g>
  </g>
  <g class="text-group">
    <text fill="black" font-family="Arial" font-size="24.0px" text-anchor="start" x="16" y="-81.6">交流位相調整回路・RL負荷版(sec10.3, ex10.5(c))。R負荷版(phase_control_r_load.asc)のRload=100Ωに</text>
  </g>
  <g class="text-group">
    <text fill="black" font-family="Arial" font-size="24.0px" text-anchor="start" x="16" y="-57.6">直列でLload=300mHを追加した点のみが異なる(alpha=60degで固定、R版の同alphaケースと比較する)。</text>
  </g>
  <g class="text-group">
    <text fill="black" font-family="Arial" font-size="24.0px" text-anchor="start" x="16" y="-33.6">負荷角phi=atan(omega*L/R)=atan(2*pi*50*0.3/100)=約43.3度。電流がv(vin)の零点より遅れて</text>
  </g>
  <g class="text-group">
    <text fill="black" font-family="Arial" font-size="24.0px" text-anchor="start" x="16" y="-9.600000000000001">消弧し、抵抗負荷のときより導通区間が広がる様子をraw波形から確認する(VERIFICATION_NOTES参照)。</text>
  </g>
  <g class="text-group">
    <text fill="black" font-family="Arial" font-size="24.0px" text-anchor="start" x="16" y="1008.4">.model QNPN2 NPN(BF=50)</text>
  </g>
  <g class="text-group">
    <text fill="black" font-family="Arial" font-size="24.0px" text-anchor="start" x="16" y="1032.4">.model QPNP2 PNP(BF=50)</text>
  </g>
  <g class="text-group">
    <text fill="black" font-family="Arial" font-size="24.0px" text-anchor="start" x="16" y="1056.4">.control</text>
  </g>
  <g class="text-group">
    <text fill="black" font-family="Arial" font-size="24.0px" text-anchor="start" x="16" y="1080.4">tran 5u 100m</text>
  </g>
  <g class="text-group">
    <text fill="black" font-family="Arial" font-size="24.0px" text-anchor="start" x="16" y="1104.4">write chapter10/phase_control_rl_load.raw all</text>
  </g>
  <g class="text-group">
    <text fill="black" font-family="Arial" font-size="24.0px" text-anchor="start" x="16" y="1128.4">.endc</text>
  </g>
  <g transform="rotate(-90, 64, 16)">
    <g class="text-group">
      <text fill="black" font-family="Arial" font-size="24.0px" text-anchor="middle" x="64" y="11.2">vin_p</text>
    </g>
  </g>
  <g class="net-label"/>
  <g class="ground-flag">
    <g transform="translate(64,112) rotate(0)">
      <line stroke="black" stroke-linecap="round" stroke-width="2.0" x1="-16" x2="16" y1="0" y2="0"/>
      <line stroke="black" stroke-linecap="round" stroke-width="2.0" x1="-16" x2="0" y1="0" y2="16"/>
      <line stroke="black" stroke-linecap="round" stroke-width="2.0" x1="16" x2="0" y1="0" y2="16"/>
    </g>
  </g>
  <g transform="rotate(-90, 224, 16)">
    <g class="text-group">
      <text fill="black" font-family="Arial" font-size="24.0px" text-anchor="middle" x="224" y="11.2">vin_p</text>
    </g>
  </g>
  <g class="net-label"/>
  <g transform="rotate(-90, 224, 112)">
    <g class="text-group">
      <text fill="black" font-family="Arial" font-size="24.0px" text-anchor="middle" x="224" y="107.2">vline</text>
    </g>
  </g>
  <g class="net-label"/>
  <g transform="rotate(-90, 384, 16)">
    <g class="text-group">
      <text fill="black" font-family="Arial" font-size="24.0px" text-anchor="middle" x="384" y="11.2">vline</text>
    </g>
  </g>
  <g class="net-label"/>
  <g transform="rotate(-90, 384, 112)">
    <g class="text-group">
      <text fill="black" font-family="Arial" font-size="24.0px" text-anchor="middle" x="384" y="107.2">rl_mid</text>
    </g>
  </g>
  <g class="net-label"/>
  <g transform="rotate(-90, 544, 16)">
    <g class="text-group">
      <text fill="black" font-family="Arial" font-size="24.0px" text-anchor="middle" x="544" y="11.2">rl_mid</text>
    </g>
  </g>
  <g class="net-label"/>
  <g transform="rotate(-90, 544, 112)">
    <g class="text-group">
      <text fill="black" font-family="Arial" font-size="24.0px" text-anchor="middle" x="544" y="107.2">mid</text>
    </g>
  </g>
  <g class="net-label"/>
  <g transform="rotate(-90, 592, 346)">
    <g class="text-group">
      <text fill="black" font-family="Arial" font-size="24.0px" text-anchor="middle" x="592" y="341.2">mid</text>
    </g>
  </g>
  <g class="net-label"/>
  <g transform="rotate(-90, 592, 250)">
    <g class="text-group">
      <text fill="black" font-family="Arial" font-size="24.0px" text-anchor="middle" x="592" y="245.2">gbasep</text>
    </g>
  </g>
  <g class="net-label"/>
  <g transform="rotate(-90, 560, 298)">
    <g class="text-group">
      <text fill="black" font-family="Arial" font-size="24.0px" text-anchor="middle" x="560" y="293.2">bbasep</text>
    </g>
  </g>
  <g class="net-label"/>
  <g transform="rotate(-90, 592, 394)">
    <g class="text-group">
      <text fill="black" font-family="Arial" font-size="24.0px" text-anchor="middle" x="592" y="389.2">bbasep</text>
    </g>
  </g>
  <g class="net-label"/>
  <g transform="rotate(-90, 560, 442)">
    <g class="text-group">
      <text fill="black" font-family="Arial" font-size="24.0px" text-anchor="middle" x="560" y="437.2">gbasep</text>
    </g>
  </g>
  <g class="net-label"/>
  <g class="ground-flag">
    <g transform="translate(592,490) rotate(0)">
      <line stroke="black" stroke-linecap="round" stroke-width="2.0" x1="-16" x2="16" y1="0" y2="0"/>
      <line stroke="black" stroke-linecap="round" stroke-width="2.0" x1="-16" x2="0" y1="0" y2="16"/>
      <line stroke="black" stroke-linecap="round" stroke-width="2.0" x1="16" x2="0" y1="0" y2="16"/>
    </g>
  </g>
  <g transform="rotate(-90, 760, 442)">
    <g class="text-group">
      <text fill="black" font-family="Arial" font-size="24.0px" text-anchor="middle" x="760" y="437.2">gbasep</text>
    </g>
  </g>
  <g class="net-label"/>
  <g class="ground-flag">
    <g transform="translate(760,538) rotate(0)">
      <line stroke="black" stroke-linecap="round" stroke-width="2.0" x1="-16" x2="16" y1="0" y2="0"/>
      <line stroke="black" stroke-linecap="round" stroke-width="2.0" x1="-16" x2="0" y1="0" y2="16"/>
      <line stroke="black" stroke-linecap="round" stroke-width="2.0" x1="16" x2="0" y1="0" y2="16"/>
    </g>
  </g>
  <g class="ground-flag">
    <g transform="translate(176,538) rotate(0)">
      <line stroke="black" stroke-linecap="round" stroke-width="2.0" x1="-16" x2="16" y1="0" y2="0"/>
      <line stroke="black" stroke-linecap="round" stroke-width="2.0" x1="-16" x2="0" y1="0" y2="16"/>
      <line stroke="black" stroke-linecap="round" stroke-width="2.0" x1="16" x2="0" y1="0" y2="16"/>
    </g>
  </g>
  <g transform="rotate(-90, 176, 442)">
    <g class="text-group">
      <text fill="black" font-family="Arial" font-size="24.0px" text-anchor="middle" x="176" y="437.2">gbasep</text>
    </g>
  </g>
  <g class="net-label"/>
  <g class="ground-flag">
    <g transform="translate(592,746) rotate(0)">
      <line stroke="black" stroke-linecap="round" stroke-width="2.0" x1="-16" x2="16" y1="0" y2="0"/>
      <line stroke="black" stroke-linecap="round" stroke-width="2.0" x1="-16" x2="0" y1="0" y2="16"/>
      <line stroke="black" stroke-linecap="round" stroke-width="2.0" x1="16" x2="0" y1="0" y2="16"/>
    </g>
  </g>
  <g transform="rotate(-90, 592, 650)">
    <g class="text-group">
      <text fill="black" font-family="Arial" font-size="24.0px" text-anchor="middle" x="592" y="645.2">gbasen</text>
    </g>
  </g>
  <g class="net-label"/>
  <g transform="rotate(-90, 560, 698)">
    <g class="text-group">
      <text fill="black" font-family="Arial" font-size="24.0px" text-anchor="middle" x="560" y="693.2">bbasen</text>
    </g>
  </g>
  <g class="net-label"/>
  <g transform="rotate(-90, 592, 794)">
    <g class="text-group">
      <text fill="black" font-family="Arial" font-size="24.0px" text-anchor="middle" x="592" y="789.2">bbasen</text>
    </g>
  </g>
  <g class="net-label"/>
  <g transform="rotate(-90, 560, 842)">
    <g class="text-group">
      <text fill="black" font-family="Arial" font-size="24.0px" text-anchor="middle" x="560" y="837.2">gbasen</text>
    </g>
  </g>
  <g class="net-label"/>
  <g transform="rotate(-90, 592, 890)">
    <g class="text-group">
      <text fill="black" font-family="Arial" font-size="24.0px" text-anchor="middle" x="592" y="885.2">mid</text>
    </g>
  </g>
  <g class="net-label"/>
  <g transform="rotate(-90, 760, 842)">
    <g class="text-group">
      <text fill="black" font-family="Arial" font-size="24.0px" text-anchor="middle" x="760" y="837.2">gbasen</text>
    </g>
  </g>
  <g class="net-label"/>
  <g transform="rotate(-90, 760, 938)">
    <g class="text-group">
      <text fill="black" font-family="Arial" font-size="24.0px" text-anchor="middle" x="760" y="933.2">mid</text>
    </g>
  </g>
  <g class="net-label"/>
  <g transform="rotate(-90, 176, 938)">
    <g class="text-group">
      <text fill="black" font-family="Arial" font-size="24.0px" text-anchor="middle" x="176" y="933.2">mid</text>
    </g>
  </g>
  <g class="net-label"/>
  <g transform="rotate(-90, 176, 842)">
    <g class="text-group">
      <text fill="black" font-family="Arial" font-size="24.0px" text-anchor="middle" x="176" y="837.2">gbasen</text>
    </g>
  </g>
  <g class="net-label"/>
</svg>
