<?xml version="1.0" encoding="utf-8" ?>
<svg xmlns="http://www.w3.org/2000/svg" xmlns:ev="http://www.w3.org/2001/xml-events" xmlns:s="https://github.com/nturley/netlistsvg" xmlns:xlink="http://www.w3.org/1999/xlink" baseProfile="full" height="100%" version="1.1" viewBox="-11.200000000000003 20.799999999999997 1133.1520000000016 549.552" width="100%">
  <title>switching_loss_double_pulse.svg</title>
  <defs/>
  <line stroke="black" stroke-linecap="round" stroke-width="2.0" x1="64" x2="256" y1="96" y2="96"/>
  <line stroke="black" stroke-linecap="round" stroke-width="2.0" x1="256" x2="352" y1="96" y2="96"/>
  <line stroke="black" stroke-linecap="round" stroke-width="2.0" x1="256" x2="320" y1="192" y2="192"/>
  <line stroke="black" stroke-linecap="round" stroke-width="2.0" x1="320" x2="352" y1="192" y2="192"/>
  <line stroke="black" stroke-linecap="round" stroke-width="2.0" x1="144" x2="288" y1="240" y2="240"/>
  <line stroke="black" stroke-linecap="round" stroke-width="2.0" x1="352" x2="432" y1="192" y2="192"/>
  <g s:height="96" s:type="voltage" s:width="40" transform="translate(64,96)">
    <line stroke="black" stroke-linecap="round" stroke-width="2.0" x1="0" x2="0" y1="0" y2="16"/>
    <line stroke="black" stroke-linecap="round" stroke-width="2.0" x1="0" x2="0" y1="80" y2="96"/>
    <line stroke="black" stroke-linecap="round" stroke-width="2.0" x1="0" x2="0" y1="30" y2="46"/>
    <line stroke="black" stroke-linecap="round" stroke-width="2.0" x1="-8" x2="8" y1="38" y2="38"/>
    <line stroke="black" stroke-linecap="round" stroke-width="2.0" x1="-8" x2="8" y1="62" y2="62"/>
    <ellipse cx="0.0" cy="48.0" fill="none" rx="20.0" ry="32.0" stroke="black" stroke-width="2.0"/>
    <g class="text-group">
      <text fill="black" font-family="Arial" font-size="24.0px" text-anchor="start" x="24" y="32.4">V1</text>
    </g>
    <g class="text-group">
      <text fill="black" font-family="Arial" font-size="24.0px" text-anchor="start" x="24" y="80.4">100</text>
    </g>
  </g>
  <g s:height="96" s:type="ind" s:width="10" transform="translate(256,96)">
    <line stroke="black" stroke-linecap="round" stroke-width="2.0" x1="0" x2="0" y1="0" y2="16"/>
    <line stroke="black" stroke-linecap="round" stroke-width="2.0" x1="0" x2="10" y1="16" y2="24"/>
    <line stroke="black" stroke-linecap="round" stroke-width="2.0" x1="10" x2="0" y1="24" y2="32"/>
    <line stroke="black" stroke-linecap="round" stroke-width="2.0" x1="0" x2="10" y1="32" y2="40"/>
    <line stroke="black" stroke-linecap="round" stroke-width="2.0" x1="10" x2="0" y1="40" y2="48"/>
    <line stroke="black" stroke-linecap="round" stroke-width="2.0" x1="0" x2="10" y1="48" y2="56"/>
    <line stroke="black" stroke-linecap="round" stroke-width="2.0" x1="10" x2="0" y1="56" y2="64"/>
    <line stroke="black" stroke-linecap="round" stroke-width="2.0" x1="0" x2="10" y1="64" y2="72"/>
    <line stroke="black" stroke-linecap="round" stroke-width="2.0" x1="10" x2="0" y1="72" y2="80"/>
    <line stroke="black" stroke-linecap="round" stroke-width="2.0" x1="0" x2="0" y1="80" y2="96"/>
    <g class="text-group">
      <text fill="black" font-family="Arial" font-size="24.0px" text-anchor="start" x="24" y="32.4">L1</text>
    </g>
    <g class="text-group">
      <text fill="black" font-family="Arial" font-size="24.0px" text-anchor="start" x="24" y="96.4">50u</text>
    </g>
  </g>
  <g s:height="96" s:type="diode" s:width="32" transform="translate(352,192) rotate(180)">
    <line stroke="black" stroke-linecap="round" stroke-width="2.0" x1="0" x2="0" y1="0" y2="32"/>
    <line stroke="black" stroke-linecap="round" stroke-width="2.0" x1="0" x2="0" y1="64" y2="96"/>
    <line stroke="black" stroke-linecap="round" stroke-width="2.0" x1="-16" x2="16" y1="32" y2="32"/>
    <line stroke="black" stroke-linecap="round" stroke-width="2.0" x1="-16" x2="0" y1="32" y2="64"/>
    <line stroke="black" stroke-linecap="round" stroke-width="2.0" x1="16" x2="0" y1="32" y2="64"/>
    <line stroke="black" stroke-linecap="round" stroke-width="2.0" x1="-16" x2="16" y1="64" y2="64"/>
    <g transform="rotate(180, 24, 24)">
      <g class="text-group">
        <text fill="black" font-family="Arial" font-size="24.0px" text-anchor="end" x="24" y="32.4">D1</text>
      </g>
    </g>
    <g transform="rotate(180, 24, 80)">
      <g class="text-group">
        <text fill="black" font-family="Arial" font-size="24.0px" text-anchor="end" x="24" y="88.4">DFW</text>
      </g>
    </g>
  </g>
  <g s:height="96" s:type="nmos" s:width="32" transform="translate(288,192)">
    <line stroke="black" stroke-linecap="round" stroke-width="2.0" x1="32" x2="32" y1="0" y2="24"/>
    <line stroke="black" stroke-linecap="round" stroke-width="2.0" x1="20" x2="32" y1="24" y2="24"/>
    <line stroke="black" stroke-linecap="round" stroke-width="2.0" x1="20" x2="20" y1="24" y2="72"/>
    <line stroke="black" stroke-linecap="round" stroke-width="2.0" x1="20" x2="32" y1="72" y2="72"/>
    <line stroke="black" stroke-linecap="round" stroke-width="2.0" x1="32" x2="32" y1="72" y2="96"/>
    <line stroke="black" stroke-linecap="round" stroke-width="2.0" x1="0" x2="12" y1="48" y2="48"/>
    <line stroke="black" stroke-linecap="round" stroke-width="2.0" x1="12" x2="12" y1="36" y2="60"/>
    <line stroke="black" stroke-linecap="round" stroke-width="2.0" x1="12" x2="20" y1="48" y2="48"/>
    <line stroke="black" stroke-linecap="round" stroke-width="2.0" x1="20" x2="14" y1="44" y2="48"/>
    <line stroke="black" stroke-linecap="round" stroke-width="2.0" x1="20" x2="14" y1="52" y2="48"/>
    <g class="text-group">
      <text fill="black" font-family="Arial" font-size="24.0px" text-anchor="start" x="40" y="32.4">M1</text>
    </g>
    <g class="text-group">
      <text fill="black" font-family="Arial" font-size="24.0px" text-anchor="start" x="40" y="80.4">SWMOS</text>
    </g>
  </g>
  <g s:height="96" s:type="voltage" s:width="40" transform="translate(144,240)">
    <line stroke="black" stroke-linecap="round" stroke-width="2.0" x1="0" x2="0" y1="0" y2="16"/>
    <line stroke="black" stroke-linecap="round" stroke-width="2.0" x1="0" x2="0" y1="80" y2="96"/>
    <line stroke="black" stroke-linecap="round" stroke-width="2.0" x1="0" x2="0" y1="30" y2="46"/>
    <line stroke="black" stroke-linecap="round" stroke-width="2.0" x1="-8" x2="8" y1="38" y2="38"/>
    <line stroke="black" stroke-linecap="round" stroke-width="2.0" x1="-8" x2="8" y1="62" y2="62"/>
    <ellipse cx="0.0" cy="48.0" fill="none" rx="20.0" ry="32.0" stroke="black" stroke-width="2.0"/>
    <g class="text-group">
      <text fill="black" font-family="Arial" font-size="24.0px" text-anchor="start" x="24" y="32.4">VG</text>
    </g>
    <g class="text-group">
      <text fill="black" font-family="Arial" font-size="24.0px" text-anchor="start" x="24" y="80.4">PWL(0 0 100n 0 150n 15 5150n 15 5200n 0 6200n 0 6250n 15 8250n 15 8300n 0 8500n 0)</text>
    </g>
  </g>
  <g s:height="96" s:type="cap" s:width="32" transform="translate(432,192)">
    <line stroke="black" stroke-linecap="round" stroke-width="2.0" x1="0" x2="0" y1="0" y2="44"/>
    <line stroke="black" stroke-linecap="round" stroke-width="2.0" x1="-16" x2="16" y1="44" y2="44"/>
    <line stroke="black" stroke-linecap="round" stroke-width="2.0" x1="-16" x2="16" y1="52" y2="52"/>
    <line stroke="black" stroke-linecap="round" stroke-width="2.0" x1="0" x2="0" y1="52" y2="96"/>
    <g class="text-group">
      <text fill="black" font-family="Arial" font-size="24.0px" text-anchor="start" x="24" y="32.4">Coss</text>
    </g>
    <g class="text-group">
      <text fill="black" font-family="Arial" font-size="24.0px" text-anchor="start" x="24" y="80.4">470p</text>
    </g>
  </g>
  <g class="text-group">
    <text fill="black" font-family="Arial" font-size="24.0px" text-anchor="start" x="16" y="-47.6">クランプ誘導性ダブルパルス試験回路 (chapter03, sec3.3, 例題3.2)</text>
  </g>
  <g class="text-group">
    <text fill="black" font-family="Arial" font-size="24.0px" text-anchor="start" x="16" y="408.4">.model SWMOS NMOS(LEVEL=1 VTO=3 KP=2)</text>
  </g>
  <g class="text-group">
    <text fill="black" font-family="Arial" font-size="24.0px" text-anchor="start" x="16" y="432.4">.model DFW D(Is=1e-9 N=1.0 Rs=0.001)</text>
  </g>
  <g class="text-group">
    <text fill="black" font-family="Arial" font-size="24.0px" text-anchor="start" x="16" y="456.4">.control</text>
  </g>
  <g class="text-group">
    <text fill="black" font-family="Arial" font-size="24.0px" text-anchor="start" x="16" y="468.4">save all @d1[id]</text>
  </g>
  <g class="text-group">
    <text fill="black" font-family="Arial" font-size="24.0px" text-anchor="start" x="16" y="480.4">tran 0.5n 8.5u 0 0.5n</text>
  </g>
  <g class="text-group">
    <text fill="black" font-family="Arial" font-size="24.0px" text-anchor="start" x="16" y="504.4">wrdata chapter03/dpt_switching_loss.txt v(sw) v(vtop) v(gate) i(l1) @d1[id]</text>
  </g>
  <g class="text-group">
    <text fill="black" font-family="Arial" font-size="24.0px" text-anchor="start" x="16" y="528.4">write chapter03/switching_loss_double_pulse.raw</text>
  </g>
  <g class="text-group">
    <text fill="black" font-family="Arial" font-size="24.0px" text-anchor="start" x="16" y="552.4">.endc</text>
  </g>
  <g class="ground-flag">
    <g transform="translate(64,192) rotate(0)">
      <line stroke="black" stroke-linecap="round" stroke-width="2.0" x1="-16" x2="16" y1="0" y2="0"/>
      <line stroke="black" stroke-linecap="round" stroke-width="2.0" x1="-16" x2="0" y1="0" y2="16"/>
      <line stroke="black" stroke-linecap="round" stroke-width="2.0" x1="16" x2="0" y1="0" y2="16"/>
    </g>
  </g>
  <g class="ground-flag">
    <g transform="translate(320,288) rotate(0)">
      <line stroke="black" stroke-linecap="round" stroke-width="2.0" x1="-16" x2="16" y1="0" y2="0"/>
      <line stroke="black" stroke-linecap="round" stroke-width="2.0" x1="-16" x2="0" y1="0" y2="16"/>
      <line stroke="black" stroke-linecap="round" stroke-width="2.0" x1="16" x2="0" y1="0" y2="16"/>
    </g>
  </g>
  <g class="ground-flag">
    <g transform="translate(144,336) rotate(0)">
      <line stroke="black" stroke-linecap="round" stroke-width="2.0" x1="-16" x2="16" y1="0" y2="0"/>
      <line stroke="black" stroke-linecap="round" stroke-width="2.0" x1="-16" x2="0" y1="0" y2="16"/>
      <line stroke="black" stroke-linecap="round" stroke-width="2.0" x1="16" x2="0" y1="0" y2="16"/>
    </g>
  </g>
  <g class="ground-flag">
    <g transform="translate(432,288) rotate(0)">
      <line stroke="black" stroke-linecap="round" stroke-width="2.0" x1="-16" x2="16" y1="0" y2="0"/>
      <line stroke="black" stroke-linecap="round" stroke-width="2.0" x1="-16" x2="0" y1="0" y2="16"/>
      <line stroke="black" stroke-linecap="round" stroke-width="2.0" x1="16" x2="0" y1="0" y2="16"/>
    </g>
  </g>
  <g class="text-group">
    <text fill="black" font-family="Arial" font-size="24.0px" text-anchor="end" x="64" y="104.4">vtop</text>
  </g>
  <g class="net-label"/>
  <g class="text-group">
    <text fill="black" font-family="Arial" font-size="24.0px" text-anchor="middle" x="320" y="187.2">sw</text>
  </g>
  <g class="net-label"/>
  <g class="text-group">
    <text fill="black" font-family="Arial" font-size="24.0px" text-anchor="start" x="288" y="248.4">gate</text>
  </g>
  <g class="net-label"/>
</svg>
